<?xml version="1.0" encoding="utf-8"?>
<!-- Generator: Adobe Illustrator 19.0.0, SVG Export Plug-In . SVG Version: 6.00 Build 0)  -->
<svg version="1.1" id="Layer_1" xmlns="http://www.w3.org/2000/svg" xmlns:xlink="http://www.w3.org/1999/xlink" x="0px" y="0px"
	 viewBox="0 0 276 70.8" enable-background="new 0 0 276 70.8" xml:space="preserve" width="238" height="60">
<g>
	<g>
		<path fill="#ffffff" d="M161.5,58.8l-2.7,9.1c-0.3,1-0.6,1.5-0.8,1.7c-0.3,0.2-1.1,0.2-2.4,0.2l-2.6-8.6l-2,6.7
			c-0.3,1-0.6,1.5-0.8,1.7c-0.3,0.2-1,0.2-2.3,0.2l-3.2-11c1.3,0,2,0.1,2.2,0.2c0.2,0.2,0.5,0.7,0.7,1.7l1.6,6.9l2.6-8.9
			c1.1,0,1.8,0.1,2.1,0.2c0.2,0.2,0.5,0.7,0.8,1.7l2.2,7l2.2-8.9H161.5z"/>
		<path fill="#ffffff" d="M172.6,63.4c0,0.9-0.1,1.5-0.3,1.6c-0.2,0.2-0.9,0.2-2.1,0.2h-5.8c0,0.8,0.3,1.5,0.8,2
			c0.5,0.5,1.3,0.8,2.3,0.8h2.4c0.9,0,1.4,0.1,1.6,0.2c0.2,0.2,0.2,0.7,0.2,1.6h-4.1c-3.6,0-5.5-1.9-5.5-5.6c0-3.8,1.8-5.6,5.5-5.6
			c1.6,0,2.8,0.5,3.7,1.4C172.2,60.9,172.6,62,172.6,63.4z M170.2,63.4C170.2,63.4,170.2,63.4,170.2,63.4c0-2-0.9-3-2.8-3
			c-1.5,0-2.3,0.1-2.6,0.4c-0.3,0.3-0.4,1.1-0.4,2.6H170.2z"/>
		<path fill="#ffffff" d="M185.1,64.3c0,1.7-0.4,3-1.1,4c-0.9,1.1-2.2,1.7-4,1.7c-3.7,0-5.6-1.9-5.6-5.7v-9.7c1.1,0,1.8,0.1,2,0.2
			c0.2,0.2,0.3,0.7,0.3,1.7v3.6c0.6-1,1.9-1.5,3.7-1.5C183.6,58.6,185.1,60.5,185.1,64.3z M182.8,64.3c0-1.2-0.2-2.1-0.6-2.7
			c-0.5-0.7-1.3-1.1-2.5-1.1c-1.5,0-2.4,0.2-2.7,0.5c-0.3,0.3-0.4,1.4-0.4,3.3c0,1.3,0.2,2.2,0.6,2.7c0.5,0.7,1.3,1.1,2.5,1.1
			c1.5,0,2.4-0.2,2.6-0.5C182.7,67.3,182.8,66.2,182.8,64.3z"/>
		<path fill="#ffffff" d="M201.6,66.7c0,0.9-0.4,1.6-1.1,2.2c-0.9,0.7-2.1,1-3.7,1h-4.3c0-0.9,0.1-1.5,0.2-1.6
			c0.1-0.2,0.7-0.2,1.5-0.2h2.5c1.4,0,2.2,0,2.4-0.1c0.2-0.1,0.3-0.4,0.3-1.1c0-0.6-0.6-1.1-1.8-1.4c-2.2-0.6-3.4-0.9-3.4-0.9
			c-1.2-0.5-1.9-1.3-1.9-2.4c-0.1-2.2,1.6-3.3,4.8-3.3h3.9c0,0.9-0.1,1.4-0.2,1.6c-0.1,0.2-0.6,0.2-1.5,0.2H197c-1.3,0-2,0-2.2,0.1
			c-0.2,0.1-0.3,0.5-0.3,1.2c0,0.5,0.6,0.9,1.8,1.2c1.9,0.4,3,0.8,3.4,0.9C201,64.6,201.6,65.5,201.6,66.7z"/>
		<path fill="#ffffff" d="M213.2,63.4c0,0.9-0.1,1.5-0.3,1.6c-0.2,0.2-0.9,0.2-2.1,0.2H205c0,0.8,0.3,1.5,0.8,2
			c0.5,0.5,1.3,0.8,2.3,0.8h2.4c0.9,0,1.4,0.1,1.6,0.2c0.2,0.2,0.2,0.7,0.2,1.6h-4.1c-3.6,0-5.5-1.9-5.5-5.6c0-3.8,1.8-5.6,5.5-5.6
			c1.6,0,2.8,0.5,3.7,1.4C212.7,60.9,213.2,62,213.2,63.4z M210.8,63.4C210.8,63.4,210.8,63.4,210.8,63.4c0-2-0.9-3-2.8-3
			c-1.5,0-2.3,0.1-2.6,0.4c-0.3,0.3-0.4,1.1-0.4,2.6H210.8z"/>
		<path fill="#ffffff" d="M220.7,58.7c0,1-0.1,1.6-0.2,1.7c-0.1,0.2-0.5,0.2-1.3,0.2c-0.9,0-1.5,0.2-1.7,0.6
			c-0.2,0.3-0.2,1.1-0.2,2.5v6.1c-1.1,0-1.8-0.1-2-0.2c-0.2-0.2-0.3-0.7-0.3-1.7v-9.1c0.9,0,1.4,0.1,1.5,0.2
			c0.1,0.1,0.2,0.6,0.2,1.3C217.4,59.2,218.7,58.7,220.7,58.7z"/>
		<path fill="#ffffff" d="M232.8,58.8l-3.9,9.1c-0.4,1-0.8,1.5-1.1,1.7c-0.3,0.2-1.1,0.2-2.4,0.2l-4.5-11c1.3,0,2,0.1,2.3,0.2
			c0.3,0.2,0.6,0.7,0.9,1.7l2.6,7.1l3.4-9.1H232.8z"/>
		<path fill="#ffffff" d="M236.6,56.2c0,0.9-0.5,1.4-1.6,1.4c-1.1,0-1.7-0.5-1.7-1.4c0-0.9,0.6-1.4,1.7-1.4
			C236.1,54.8,236.6,55.2,236.6,56.2z M236.1,69.8c-1.1,0-1.8-0.1-2-0.2c-0.2-0.2-0.3-0.7-0.3-1.7v-9.1c1.1,0,1.8,0.1,2,0.2
			c0.2,0.2,0.3,0.7,0.3,1.7V69.8z"/>
		<path fill="#ffffff" d="M246.7,69.9h-3.3c-3.7,0-5.5-1.8-5.5-5.5c0-3.7,1.8-5.5,5.4-5.5h3.4c0,0.9-0.1,1.5-0.2,1.6
			c-0.1,0.2-0.6,0.2-1.5,0.2h-1.7c-1.2,0-1.9,0-2.2,0.1c-0.4,0.1-0.7,0.4-0.8,0.9c-0.1,0.4-0.1,1.2-0.1,2.6c0,2.5,1,3.7,3.1,3.7h1.6
			c0.9,0,1.4,0.1,1.6,0.2C246.6,68.4,246.7,68.9,246.7,69.9z"/>
		<path fill="#ffffff" d="M258.2,63.4c0,0.9-0.1,1.5-0.3,1.6c-0.2,0.2-0.9,0.2-2.1,0.2h-5.8c0,0.8,0.3,1.5,0.8,2
			c0.5,0.5,1.3,0.8,2.3,0.8h2.4c0.9,0,1.4,0.1,1.6,0.2c0.2,0.2,0.2,0.7,0.2,1.6h-4.1c-3.6,0-5.5-1.9-5.5-5.6c0-3.8,1.8-5.6,5.5-5.6
			c1.6,0,2.8,0.5,3.7,1.4C257.8,60.9,258.2,62,258.2,63.4z M255.9,63.4C255.9,63.4,255.9,63.4,255.9,63.4c0-2-0.9-3-2.8-3
			c-1.5,0-2.3,0.1-2.6,0.4c-0.3,0.3-0.4,1.1-0.4,2.6H255.9z"/>
		<path fill="#ffffff" d="M268.9,66.7c0,0.9-0.4,1.6-1.1,2.2c-0.9,0.7-2.1,1-3.7,1h-4.3c0-0.9,0.1-1.5,0.2-1.6
			c0.1-0.2,0.7-0.2,1.5-0.2h2.5c1.4,0,2.2,0,2.4-0.1c0.2-0.1,0.3-0.4,0.3-1.1c0-0.6-0.6-1.1-1.8-1.4c-2.2-0.6-3.4-0.9-3.4-0.9
			c-1.2-0.5-1.9-1.3-1.9-2.4c-0.1-2.2,1.6-3.3,4.8-3.3h3.9c0,0.9-0.1,1.4-0.2,1.6c-0.1,0.2-0.6,0.2-1.5,0.2h-2.3c-1.3,0-2,0-2.2,0.1
			c-0.2,0.1-0.3,0.5-0.3,1.2c0,0.5,0.6,0.9,1.8,1.2c1.9,0.4,3,0.8,3.4,0.9C268.3,64.6,268.9,65.5,268.9,66.7z"/>
	</g>
	<g>
		<path fill="none" d="M33.2,31.7h-4.4c-1.8,0-3.2,0.1-4.3,0.2c-1.1,0.1-1.8,0.3-2.1,0.5c-0.3,0.2-0.7,0.7-0.9,1.5
			c-0.3,0.8-0.5,1.8-0.8,3.1c-0.3,1.5,0.1,2.6,1.2,3.4c1,0.7,2.7,1.1,5,1.1c2.2,0,4-0.1,5.4-0.3c1.3-0.2,2.2-0.5,2.7-0.8
			c0.4-0.4,0.9-1.2,1.3-2.4c0.4-1.3,0.8-3,1.2-5.1l0.1-0.5l0.1-0.5H33.2z"/>
		<path fill="#ffffff" d="M53.6,10.5c-3.7-4.3-10.2-6.6-19.3-6.8c-9.1-0.2-16.4,2-21.9,6.5C6.9,14.6,3.2,21.5,1.4,30.6
			C0.6,35,0.3,38.8,0.6,42.1c0.3,3.3,1.2,6,2.7,8.2c1.9,2.8,4.7,4.9,8.6,6.3c3.9,1.4,8.8,2.2,14.8,2.3l6,0.1l6,0.1
			c0.3-1.4,0.5-2.6,0.5-3.4c0.1-0.8,0-1.4-0.2-1.6c-0.2-0.2-0.6-0.4-1.3-0.6c-0.7-0.1-1.7-0.2-3-0.2l-3.4-0.1l-3.4-0.1
			c-4.6-0.1-8.4-0.7-11.4-1.8c-3-1.1-5.3-2.7-6.7-4.7c-1.2-1.7-2-3.9-2.2-6.5c-0.3-2.6,0-5.8,0.7-9.3c0.8-3.8,1.5-7,2.1-9.5
			c0.6-2.5,1.2-4.4,1.8-5.6c0.7-1.5,1.6-2.7,2.8-3.7c1.1-0.9,2.4-1.6,4-2c1.2-0.3,3-0.5,5.4-0.6c2.4-0.1,5.4-0.1,9.1-0.1
			C37.1,9.5,40.3,10,43,11c2.6,1,4.6,2.5,5.9,4.4c1,1.6,1.6,3.6,1.9,5.9c0.2,2.4,0,5.1-0.6,8.2c-0.6,2.9-1.1,5.2-1.6,6.8
			c-0.5,1.7-0.9,2.7-1.4,3.2c-0.4,0.5-1.2,0.8-2.4,1c-0.7,0.1-1.5,0.2-2.3,0.2c-1.4,0-3.4,5.2-0.9,5.4c5.7-0.2,8.6-2.7,10.1-4.5
			c1.1-1.3,2.2-2.9,3-4.9c0.9-2,1.5-4.4,2.1-7.1C58.3,21.2,57.3,14.8,53.6,10.5z"/>
		<linearGradient id="SVGID_1_" gradientUnits="userSpaceOnUse" x1="13.8775" y1="20.6453" x2="44.9722" y2="20.6453">
			<stop  offset="0" style="stop-color:#ffffff"/>
			<stop  offset="0.1409" style="stop-color:#ffffff"/>
			<stop  offset="0.433" style="stop-color:#ffffff"/>
			<stop  offset="0.7215" style="stop-color:#ffffff"/>
			<stop  offset="1" style="stop-color:#ffffff"/>
		</linearGradient>
		<path fill="url(#SVGID_1_)" d="M31.1,20.3c1.5,0,2.8,0.1,3.8,0.4c0.4,0.1,0.7,0.2,1.1,0.3c-0.3-0.1-0.7-0.2-1.1-0.3
			C33.9,20.4,32.6,20.3,31.1,20.3z"/>
		<linearGradient id="SVGID_2_" gradientUnits="userSpaceOnUse" x1="13.8765" y1="22.7081" x2="44.9723" y2="22.7081">
			<stop  offset="0" style="stop-color:#ffffff"/>
			<stop  offset="0.1409" style="stop-color:#ffffff"/>
			<stop  offset="0.433" style="stop-color:#ffffff"/>
			<stop  offset="0.7215" style="stop-color:#ffffff"/>
			<stop  offset="1" style="stop-color:#ffffff"/>
		</linearGradient>
		<path fill="url(#SVGID_2_)" d="M37.4,21.7c0.6,0.5,1,1.1,1.2,1.9C38.3,22.9,38,22.2,37.4,21.7z"/>
		<linearGradient id="SVGID_3_" gradientUnits="userSpaceOnUse" x1="13.8812" y1="41.9268" x2="44.971" y2="41.9268">
			<stop  offset="0" style="stop-color:#ffffff"/>
			<stop  offset="0.1409" style="stop-color:#ffffff"/>
			<stop  offset="0.433" style="stop-color:#ffffff"/>
			<stop  offset="0.7215" style="stop-color:#ffffff"/>
			<stop  offset="1" style="stop-color:#ffffff"/>
		</linearGradient>
		<path fill="url(#SVGID_3_)" d="M37.4,41.5c0,0.3-0.1,0.5-0.1,0.8C37.3,42.1,37.4,41.8,37.4,41.5L37.4,41.5z"/>
		<linearGradient id="SVGID_4_" gradientUnits="userSpaceOnUse" x1="13.8776" y1="19.8995" x2="44.9724" y2="19.8995">
			<stop  offset="0" style="stop-color:#ffffff"/>
			<stop  offset="0.1409" style="stop-color:#ffffff"/>
			<stop  offset="0.433" style="stop-color:#ffffff"/>
			<stop  offset="0.7215" style="stop-color:#ffffff"/>
			<stop  offset="1" style="stop-color:#ffffff"/>
		</linearGradient>
		<path fill="url(#SVGID_4_)" d="M22,20.1c-0.7-0.1-1.1-0.3-1.3-0.5C20.9,19.9,21.3,20,22,20.1z"/>
		<linearGradient id="SVGID_5_" gradientUnits="userSpaceOnUse" x1="13.8779" y1="17.2989" x2="44.972" y2="17.2989">
			<stop  offset="0" style="stop-color:#ffffff"/>
			<stop  offset="0.1409" style="stop-color:#ffffff"/>
			<stop  offset="0.433" style="stop-color:#ffffff"/>
			<stop  offset="0.7215" style="stop-color:#ffffff"/>
			<stop  offset="1" style="stop-color:#ffffff"/>
		</linearGradient>
		<path fill="url(#SVGID_5_)" d="M43.3,18.6c-0.9-1.2-2.3-2.1-4.3-2.7C41,16.6,42.4,17.4,43.3,18.6z"/>
		<linearGradient id="SVGID_6_" gradientUnits="userSpaceOnUse" x1="13.8776" y1="20.5861" x2="44.972" y2="20.5861">
			<stop  offset="0" style="stop-color:#ffffff"/>
			<stop  offset="0.1409" style="stop-color:#ffffff"/>
			<stop  offset="0.433" style="stop-color:#ffffff"/>
			<stop  offset="0.7215" style="stop-color:#ffffff"/>
			<stop  offset="1" style="stop-color:#ffffff"/>
		</linearGradient>
		<path fill="url(#SVGID_6_)" d="M43.3,18.6c0.8,1,1.3,2.3,1.5,3.9C44.7,20.9,44.1,19.6,43.3,18.6z"/>
		<linearGradient id="SVGID_7_" gradientUnits="userSpaceOnUse" x1="13.8775" y1="41.7298" x2="44.972" y2="41.7298">
			<stop  offset="0" style="stop-color:#ffffff"/>
			<stop  offset="0.1409" style="stop-color:#ffffff"/>
			<stop  offset="0.433" style="stop-color:#ffffff"/>
			<stop  offset="0.7215" style="stop-color:#ffffff"/>
			<stop  offset="1" style="stop-color:#ffffff"/>
		</linearGradient>
		<polygon fill="url(#SVGID_7_)" points="43,37.2 41.4,46.3 42.4,40.9 		"/>
		<path fill="#ffffff" d="M33.6,26.6h-4.9c-2.2,0-4.1,0.2-5.9,0.7c-1.7,0.5-3.2,1.2-4.5,2.2c-1.2,0.9-2.1,2-2.8,3.2
			c-0.7,1.2-1.2,2.6-1.5,4.1c-0.3,1.5-0.2,2.9,0.2,4.1c0.4,1.2,1.1,2.2,2.1,3c1,0.8,2.1,1.3,3.5,1.7c1.4,0.4,2.9,0.6,4.7,0.6
			c1.5,0,2.9-0.1,4.3-0.4c1.4-0.3,2.7-0.7,3.9-1.2c1.1-0.5,2-1,2.8-1.5c0.8-0.6,1.4-1.2,2-1.8c0,0,4.6-14.7,0.9-14.7
			C36.8,26.6,33.6,26.6,33.6,26.6z M37.5,32.7c-0.4,2.1-0.8,3.9-1.2,5.1c-0.4,1.3-0.8,2.1-1.3,2.4c-0.4,0.4-1.3,0.6-2.7,0.8
			c-1.3,0.2-3.1,0.3-5.4,0.3c-2.3,0-4-0.4-5-1.1c-1-0.7-1.4-1.9-1.2-3.4c0.2-1.3,0.5-2.3,0.8-3.1c0.3-0.8,0.6-1.2,0.9-1.5
			c0.3-0.2,1-0.4,2.1-0.5c1.1-0.1,2.5-0.2,4.3-0.2h4.4h4.4l-0.1,0.5L37.5,32.7z"/>
		<linearGradient id="SVGID_8_" gradientUnits="userSpaceOnUse" x1="13.8773" y1="46.1581" x2="44.9721" y2="46.1581">
			<stop  offset="0" style="stop-color:#ffffff"/>
			<stop  offset="0.1409" style="stop-color:#ffffff"/>
			<stop  offset="0.433" style="stop-color:#ffffff"/>
			<stop  offset="0.7215" style="stop-color:#ffffff"/>
			<stop  offset="1" style="stop-color:#ffffff"/>
		</linearGradient>
		<path fill="url(#SVGID_8_)" d="M38,46c0.2,0,0.3,0.1,0.6,0.1c0.5,0.1,1.2,0.1,1.9,0.1c-0.8,0-1.4-0.1-1.9-0.1
			C38.4,46.1,38.2,46.1,38,46z"/>
		<linearGradient id="SVGID_9_" gradientUnits="userSpaceOnUse" x1="13.7808" y1="46.2955" x2="44.9845" y2="46.2955">
			<stop  offset="0" style="stop-color:#ffffff"/>
			<stop  offset="0.1409" style="stop-color:#ffffff"/>
			<stop  offset="0.433" style="stop-color:#ffffff"/>
			<stop  offset="0.7215" style="stop-color:#ffffff"/>
			<stop  offset="1" style="stop-color:#ffffff"/>
		</linearGradient>
		<polygon fill="url(#SVGID_9_)" points="41.4,46.3 41.4,46.3 41.4,46.3 		"/>
		<linearGradient id="SVGID_10_" gradientUnits="userSpaceOnUse" x1="44.9233" y1="57.8426" x2="33.1945" y2="2.6633">
			<stop  offset="0" style="stop-color:#ffffff"/>
			<stop  offset="9.592288e-002" style="stop-color:#ffffff"/>
			<stop  offset="0.2476" style="stop-color:#ffffff"/>
			<stop  offset="0.4349" style="stop-color:#ffffff"/>
			<stop  offset="0.5153" style="stop-color:#ffffff"/>
			<stop  offset="0.5541" style="stop-color:#ffffff"/>
			<stop  offset="0.6459" style="stop-color:#ffffff"/>
			<stop  offset="0.7449" style="stop-color:#ffffff"/>
			<stop  offset="0.8552" style="stop-color:#ffffff"/>
			<stop  offset="1" style="stop-color:#ffffff"/>
		</linearGradient>
		<polygon fill="url(#SVGID_10_)" points="41.4,46.3 41.4,46.3 41.4,46.3 42.4,40.9 		"/>
		<linearGradient id="SVGID_11_" gradientUnits="userSpaceOnUse" x1="13.8774" y1="43.6019" x2="44.972" y2="43.6019">
			<stop  offset="0" style="stop-color:#ffffff"/>
			<stop  offset="0.1409" style="stop-color:#ffffff"/>
			<stop  offset="0.433" style="stop-color:#ffffff"/>
			<stop  offset="0.7215" style="stop-color:#ffffff"/>
			<stop  offset="1" style="stop-color:#ffffff"/>
		</linearGradient>
		<polygon fill="url(#SVGID_11_)" points="41.4,46.3 41.4,46.3 41.4,46.3 42.4,40.9 		"/>
		<linearGradient id="SVGID_12_" gradientUnits="userSpaceOnUse" x1="15.4929" y1="41.2592" x2="21.6685" y2="12.2052">
			<stop  offset="0" style="stop-color:#ffffff"/>
			<stop  offset="0.5276" style="stop-color:#ffffff"/>
			<stop  offset="1" style="stop-color:#ffffff"/>
		</linearGradient>
		<path fill="url(#SVGID_12_)" d="M20.5,18.2c0-0.8,0.2-1.8,0.4-3.1C20.7,16.4,20.6,17.4,20.5,18.2z"/>
		<linearGradient id="SVGID_13_" gradientUnits="userSpaceOnUse" x1="37.281" y1="45.8844" x2="43.4567" y2="16.8301">
			<stop  offset="0" style="stop-color:#ffffff"/>
			<stop  offset="0.5276" style="stop-color:#ffffff"/>
			<stop  offset="1" style="stop-color:#ffffff"/>
		</linearGradient>
		<path fill="url(#SVGID_13_)" d="M37.1,44.4c0-0.5,0.1-1.2,0.2-2.1C37.2,43.1,37.1,43.8,37.1,44.4c0,0.7,0,1.1,0.2,1.3
			c0.1,0.1,0.4,0.3,0.7,0.3c-0.4-0.1-0.6-0.2-0.7-0.3C37.1,45.5,37.1,45,37.1,44.4z"/>
		<linearGradient id="SVGID_14_" gradientUnits="userSpaceOnUse" x1="36.5028" y1="45.7149" x2="42.6728" y2="16.6874">
			<stop  offset="0" style="stop-color:#ffffff"/>
			<stop  offset="0.5276" style="stop-color:#ffffff"/>
			<stop  offset="1" style="stop-color:#ffffff"/>
		</linearGradient>
		<path fill="url(#SVGID_14_)" d="M37.4,41.3l0,0.2C37.4,41.5,37.4,41.4,37.4,41.3C37.4,41.3,37.4,41.3,37.4,41.3z"/>
		<linearGradient id="SVGID_15_" gradientUnits="userSpaceOnUse" x1="29.3603" y1="44.1909" x2="35.5338" y2="15.1468">
			<stop  offset="0" style="stop-color:#ffffff"/>
			<stop  offset="0.5276" style="stop-color:#ffffff"/>
			<stop  offset="1" style="stop-color:#ffffff"/>
		</linearGradient>
		<path fill="url(#SVGID_15_)" d="M31.8,15.1c2.9,0,5.3,0.3,7.2,0.9C37.2,15.4,34.7,15.1,31.8,15.1z"/>
		<linearGradient id="SVGID_16_" gradientUnits="userSpaceOnUse" x1="18.7642" y1="41.9421" x2="24.9367" y2="12.9025">
			<stop  offset="0" style="stop-color:#ffffff"/>
			<stop  offset="0.5276" style="stop-color:#ffffff"/>
			<stop  offset="1" style="stop-color:#ffffff"/>
		</linearGradient>
		<path fill="url(#SVGID_16_)" d="M24.8,20.3c-1.2,0-2.1-0.1-2.8-0.2C22.7,20.2,23.6,20.3,24.8,20.3z"/>
		<linearGradient id="SVGID_17_" gradientUnits="userSpaceOnUse" x1="31.724" y1="44.6987" x2="37.8985" y2="15.65">
			<stop  offset="0" style="stop-color:#ffffff"/>
			<stop  offset="0.5276" style="stop-color:#ffffff"/>
			<stop  offset="1" style="stop-color:#ffffff"/>
		</linearGradient>
		<path fill="url(#SVGID_17_)" d="M37.4,21.7C37,21.4,36.5,21.2,36,21C36.5,21.2,37,21.4,37.4,21.7z"/>
		<path fill="#ffffff" d="M44.6,28.3c0.4-2.2,0.5-4.2,0.3-5.8c-0.2-1.6-0.7-2.9-1.5-3.9c-0.9-1.2-2.3-2.1-4.3-2.7
			c-1.9-0.6-4.3-0.9-7.2-0.9h-5.5h-5.5c-0.2,1.3-0.4,2.4-0.4,3.1c0,0.8,0,1.3,0.2,1.5c0.2,0.2,0.6,0.4,1.3,0.5
			c0.7,0.1,1.6,0.2,2.8,0.2H28h3.2c1.5,0,2.8,0.1,3.8,0.4c0.4,0.1,0.7,0.2,1.1,0.3c0.5,0.2,1,0.5,1.4,0.8c0.6,0.5,1,1.1,1.2,1.9
			c0.2,0.8,0.2,1.8,0,2.9h-0.2l-0.9,14.7c0,0,0,0,0,0c0,0.1,0,0.2,0,0.3l0,0c0,0.2-0.1,0.5-0.1,0.7c-0.1,0.8-0.2,1.6-0.2,2.1
			c0,0.7,0.1,1.1,0.2,1.3c0.1,0.1,0.4,0.3,0.7,0.3c0.2,0,0.3,0.1,0.6,0.1c0.5,0.1,1.2,0.1,1.9,0.1c0,0,0,0,0,0c0.2,0,0.4,0,0.6,0
			c0.1,0,0.2,0,0.3,0l1.6-9.1L44.6,28.3z"/>
	</g>
	<path fill="#ffffff" d="M94.2,30.8C93.3,36,91.4,40,88.6,43c-3.3,3.5-7.7,5.2-13.2,5.2c-11.5,0-16.2-5.8-14.1-17.5l5.3-30
		c3.5,0,5.5,0.2,6,0.7c0.5,0.5,0.5,2.2-0.1,5.2l-2,11.1c2.5-3.1,6.6-4.7,12.4-4.7C92.5,13.2,96.3,19.1,94.2,30.8z M87.1,30.8
		c0.7-3.8,0.5-6.5-0.4-8.3c-1.1-2.2-3.4-3.2-7.1-3.2c-4.7,0-7.5,0.5-8.5,1.5c-1,1-2,4.3-3,10.1c-0.7,3.9-0.6,6.7,0.3,8.5
		c1.1,2.2,3.4,3.2,7.2,3.2c4.7,0,7.5-0.5,8.4-1.5C85.1,40.1,86,36.7,87.1,30.8z"/>
	<path fill="#ffffff" d="M125.7,38.1c-0.5,2.8-2.1,5-4.7,6.8c-3,2.1-7,3.1-12,3.1H95.6c0.5-2.9,1-4.6,1.6-5c0.5-0.5,2.1-0.7,4.9-0.7
		h7.8c4.3,0,6.7-0.1,7.3-0.3c0.6-0.2,1.1-1.4,1.5-3.4c0.4-2-1.3-3.4-4.8-4.3c-6.6-1.8-9.9-2.7-10-2.7c-3.6-1.6-5.1-4-4.5-7.5
		c1-6.8,6.6-10.2,16.7-10.2h12.1c-0.5,2.8-1,4.5-1.5,5c-0.5,0.5-2.1,0.7-4.7,0.7h-7.2c-4,0-6.2,0.1-6.7,0.3
		c-0.7,0.3-1.3,1.6-1.7,3.8c-0.3,1.6,1.4,2.8,5,3.7c5.6,1.4,9,2.3,10,2.8C124.9,31.9,126.4,34.5,125.7,38.1z"/>
	<path fill="#ffffff" d="M164.2,30.9c-2.1,11.6-8.7,17.5-20.1,17.5c-11.2,0-15.8-5.8-13.7-17.5c2-11.6,8.7-17.4,20-17.4
		C161.6,13.5,166.2,19.3,164.2,30.9z M157,30.9c0.6-3.7,0.5-6.4-0.4-8.2c-1.1-2.3-3.5-3.4-7.2-3.4c-4.8,0-7.7,0.5-8.7,1.5
		c-1,1-2,4.3-3,10.1c-1.4,7.8,1.1,11.6,7.5,11.6c4.9,0,7.8-0.5,8.8-1.5C154.9,40.1,155.9,36.7,157,30.9z"/>
	<path fill="#ffffff" d="M173.9,47.9c-3.6,0-5.6-0.3-6.1-0.8c-0.5-0.5-0.5-2.3,0.1-5.3l7.2-41c3.5,0,5.6,0.2,6.1,0.7
		c0.5,0.5,0.5,2.2,0,5.1L173.9,47.9z"/>
	<path fill="#ffffff" d="M211.7,47.9c-2.7,0-4.3-0.2-4.6-0.6c-0.4-0.4-0.3-1.8,0.1-4.3c-2.5,3.6-6.9,5.3-13.4,5.3
		c-5.3,0-8.7-1.4-10.2-4.3c-1.2-2.4-1.4-6.2-0.5-11.6l3.3-18.6c3.5,0,5.5,0.2,6,0.7c0.5,0.5,0.5,2.3-0.1,5.4L189.9,33
		c-0.6,3.3-0.5,5.6,0.3,6.9c0.9,1.6,3.1,2.4,6.6,2.4c4.4,0,7-0.4,7.9-1.2c0.9-0.8,1.7-3.6,2.6-8.4l3.3-18.9c3.5,0,5.6,0.2,6.1,0.7
		c0.5,0.5,0.5,2.3-0.1,5.4L211.7,47.9z"/>
	<path fill="#ffffff" d="M242.8,13.8c-0.5,2.9-1,4.6-1.6,5.1c-0.6,0.5-2.3,0.7-5.2,0.7h-3.3l-3.3,18.5c-0.5,2.7,0.4,4.1,2.6,4.1
		c2.7,0,4.3,0.3,4.6,0.8c0.4,0.5,0.3,2.2-0.3,5.2c-1.1,0.1-2.2,0.1-3.1,0.1c-4.5,0-7.7-0.8-9.4-2.4c-1.7-1.6-2.3-4.2-1.7-7.8
		l3.2-18.4h-4.6l0.8-4.2c2.4,0,3.8-0.2,4.2-0.5c0.3-0.3,0.7-1.6,1.1-3.7l1.1-6.1h7.1l-1.5,8.6H242.8z"/>
	<path fill="#ffffff" d="M275.2,28.1c-0.5,2.8-1.1,4.5-1.8,5c-0.7,0.5-2.9,0.7-6.5,0.7h-17.8c-0.5,2.6,0,4.7,1.4,6.2
		c1.4,1.6,3.6,2.3,6.6,2.3h7.5c2.8,0,4.4,0.2,4.7,0.7c0.4,0.5,0.3,2.2-0.2,5h-12.8c-11.3,0-15.9-5.7-13.9-17.2
		c2-11.6,8.8-17.4,20.1-17.4c4.9,0,8.5,1.4,10.7,4.2C275.3,20.3,276,23.7,275.2,28.1z M267.9,28.1c0.1-0.1,0.1-0.2,0-0.2
		c1.2-6-1.2-9-7-9c-4.5,0-7.3,0.4-8.2,1.2c-0.9,0.8-1.8,3.4-2.6,8H267.9z"/>
</g>
</svg>
